<?xml version="1.0" encoding="UTF-8"?>
<svg id="Calque_1" xmlns="http://www.w3.org/2000/svg" version="1.1" viewBox="0 0 1560.7 1080">
  <!-- Generator: Adobe Illustrator 29.8.3, SVG Export Plug-In . SVG Version: 2.1.1 Build 3)  -->
  <defs>
    <style>
      .st0 {
        fill: #fff;
      }

      .st1 {
        fill: red;
      }

      .st2 {
        fill: #da0001;
      }
    </style>
  </defs>
  <g>
    <path class="st0" d="M564.6,931.4h-305.6s0-70.2,0-70.2h21.1s0,44.1,0,44.1h263.4s0-44.1,0-44.1h21.1s0,70.2,0,70.2Z"/>
    <path class="st0" d="M254.7,154.5h306s0,70.2,0,70.2h-21.1s0-44.1,0-44.1h-263.8s0,44.1,0,44.1h-21.1s0-70.2,0-70.2Z"/>
    <g>
      <path class="st0" d="M540,650.3h19.2s0,191.7,0,191.7h-19.2s0-191.7,0-191.7Z"/>
      <path class="st0" d="M540,458.5h19.2s0,191.7,0,191.7h-19.2s0-191.7,0-191.7Z"/>
      <path class="st0" d="M540,266.8h19.2s0,191.7,0,191.7h-19.2s0-191.7,0-191.7Z"/>
    </g>
    <g>
      <path class="st0" d="M251.8,638h19.2s0,191.7,0,191.7h-19.2s0-191.7,0-191.7Z"/>
      <path class="st0" d="M251.8,446.3h19.2s0,191.7,0,191.7h-19.2s0-191.7,0-191.7Z"/>
      <path class="st0" d="M251.9,254.6h19.2s0,191.7,0,191.7h-19.2s0-191.7,0-191.7Z"/>
    </g>
  </g>
  <g>
    <path class="st0" d="M1078.2,642.6h19.2s0,191.7,0,191.7h-19.2s0-191.7,0-191.7Z"/>
    <path class="st0" d="M1078.2,450.8h19.2s0,191.7,0,191.7h-19.2s0-191.7,0-191.7Z"/>
    <path class="st0" d="M1078.2,259.1h19.2s0,191.7,0,191.7h-19.2s0-191.7,0-191.7Z"/>
  </g>
  <g>
    <path class="st0" d="M790,630.3h19.2s0,191.7,0,191.7h-19.2s0-191.7,0-191.7Z"/>
    <path class="st0" d="M790,438.6h19.2s0,191.7,0,191.7h-19.2s0-191.7,0-191.7Z"/>
    <path class="st0" d="M790,246.9h19.2s0,191.7,0,191.7h-19.2s0-191.7,0-191.7Z"/>
  </g>
  <g>
    <path class="st1" d="M579.3,180.3v-19.2s191.7,0,191.7,0v19.2s-191.7,0-191.7,0Z"/>
    <path class="st1" d="M579.2,931.1v-19.2s191.7,0,191.7,0v19.2s-191.7,0-191.7,0Z"/>
    <path class="st1" d="M579.3,230.1v-19.2s191.7,0,191.7,0v19.2s-191.7,0-191.7,0Z"/>
    <path class="st1" d="M579.3,269.7v-19.2s191.7,0,191.7,0v19.2s-191.7,0-191.7,0Z"/>
    <path class="st1" d="M579.3,319.6v-19.2s191.7,0,191.7,0v19.2s-191.7,0-191.7,0Z"/>
    <path class="st1" d="M579.3,445.9v-19.2s191.7,0,191.7,0v19.2s-191.7,0-191.7,0Z"/>
    <path class="st1" d="M579.3,485.5v-19.2s191.7,0,191.7,0v19.2s-191.7,0-191.7,0Z"/>
    <path class="st1" d="M579.3,363.9v-19.2s191.7,0,191.7,0v19.2s-191.7,0-191.7,0Z"/>
    <path class="st1" d="M579.3,403.5v-19.2s191.7,0,191.7,0v19.2s-191.7,0-191.7,0Z"/>
    <path class="st1" d="M579.3,608.9v-19.2s191.7,0,191.7,0v19.2s-191.7,0-191.7,0Z"/>
    <path class="st1" d="M579.3,648.5v-19.2s191.7,0,191.7,0v19.2s-191.7,0-191.7,0Z"/>
    <path class="st1" d="M579.3,526.9v-19.2s191.7,0,191.7,0v19.2s-191.7,0-191.7,0Z"/>
    <path class="st1" d="M579.3,566.5v-19.2s191.7,0,191.7,0v19.2s-191.7,0-191.7,0Z"/>
    <path class="st1" d="M579.3,772.5v-19.2s191.7,0,191.7,0v19.2s-191.7,0-191.7,0Z"/>
    <path class="st1" d="M579.2,812.1v-19.2s191.7,0,191.7,0v19.2s-191.7,0-191.7,0Z"/>
    <path class="st1" d="M579.3,690.5v-19.2s191.7,0,191.7,0v19.2s-191.7,0-191.7,0Z"/>
    <path class="st1" d="M579.3,730.1v-19.2s191.7,0,191.7,0v19.2s-191.7,0-191.7,0Z"/>
    <path class="st1" d="M579.2,888.9v-19.2s191.7,0,191.7,0v19.2s-191.7,0-191.7,0Z"/>
    <path class="st1" d="M579.2,853.5v-19.2s191.7,0,191.7,0v19.2s-191.7,0-191.7,0Z"/>
  </g>
  <g>
    <path class="st2" d="M1126.7,169.1v-19.2s191.7,0,191.7,0v19.2s-191.7,0-191.7,0Z"/>
    <path class="st2" d="M1126.7,919.8v-19.2s191.7,0,191.7,0v19.2s-191.7,0-191.7,0Z"/>
    <path class="st2" d="M1126.7,218.9v-19.2s191.7,0,191.7,0v19.2s-191.7,0-191.7,0Z"/>
    <path class="st2" d="M1126.7,258.5v-19.2s191.7,0,191.7,0v19.2s-191.7,0-191.7,0Z"/>
    <path class="st2" d="M1126.7,308.3v-19.2s191.7,0,191.7,0v19.2s-191.7,0-191.7,0Z"/>
    <path class="st2" d="M1126.7,434.7v-19.2s191.7,0,191.7,0v19.2s-191.7,0-191.7,0Z"/>
    <path class="st2" d="M1126.7,474.3v-19.2s191.7,0,191.7,0v19.2s-191.7,0-191.7,0Z"/>
    <path class="st2" d="M1126.7,352.6v-19.2s191.7,0,191.7,0v19.2s-191.7,0-191.7,0Z"/>
    <path class="st2" d="M1126.7,392.2v-19.2s191.7,0,191.7,0v19.2s-191.7,0-191.7,0Z"/>
    <path class="st2" d="M1126.7,597.7v-19.2s191.7,0,191.7,0v19.2s-191.7,0-191.7,0Z"/>
    <path class="st2" d="M1126.7,637.3v-19.2s191.7,0,191.7,0v19.2s-191.7,0-191.7,0Z"/>
    <path class="st2" d="M1126.7,515.6v-19.2s191.7,0,191.7,0v19.2s-191.7,0-191.7,0Z"/>
    <path class="st2" d="M1126.7,555.2v-19.2s191.7,0,191.7,0v19.2s-191.7,0-191.7,0Z"/>
    <path class="st2" d="M1126.7,761.3v-19.2s191.7,0,191.7,0v19.2s-191.7,0-191.7,0Z"/>
    <path class="st2" d="M1126.7,800.9v-19.2s191.7,0,191.7,0v19.2s-191.7,0-191.7,0Z"/>
    <path class="st2" d="M1126.7,679.3v-19.2s191.7,0,191.7,0v19.2s-191.7,0-191.7,0Z"/>
    <path class="st2" d="M1126.7,718.9v-19.2s191.7,0,191.7,0v19.2s-191.7,0-191.7,0Z"/>
    <path class="st2" d="M1126.7,877.6v-19.2s191.7,0,191.7,0v19.2s-191.7,0-191.7,0Z"/>
    <path class="st2" d="M1126.7,842.3v-19.2s191.7,0,191.7,0v19.2s-191.7,0-191.7,0Z"/>
  </g>
  <path class="st2" d="M1348.3,398.7v-19.2s191.7,0,191.7,0v19.2s-191.7,0-191.7,0Z"/>
  <path class="st2" d="M1348.3,448.5v-19.2s191.7,0,191.7,0v19.2s-191.7,0-191.7,0Z"/>
  <path class="st2" d="M1348.3,488.1v-19.2s191.7,0,191.7,0v19.2s-191.7,0-191.7,0Z"/>
  <path class="st2" d="M1348.3,537.9v-19.2s191.7,0,191.7,0v19.2s-191.7,0-191.7,0Z"/>
  <path class="st2" d="M1348.3,664.2v-19.2s191.7,0,191.7,0v19.2s-191.7,0-191.7,0Z"/>
  <path class="st2" d="M1348.3,703.8v-19.2s191.7,0,191.7,0v19.2s-191.7,0-191.7,0Z"/>
  <path class="st2" d="M1348.3,582.2v-19.2s191.7,0,191.7,0v19.2s-191.7,0-191.7,0Z"/>
  <path class="st2" d="M1348.3,621.8v-19.2s191.7,0,191.7,0v19.2s-191.7,0-191.7,0Z"/>
  <g>
    <path class="st2" d="M20.7,379.4v-19.2s191.7,0,191.7,0v19.2s-191.7,0-191.7,0Z"/>
    <path class="st2" d="M20.7,429.2v-19.2s191.7,0,191.7,0v19.2s-191.7,0-191.7,0Z"/>
    <path class="st2" d="M20.7,468.8v-19.2s191.7,0,191.7,0v19.2s-191.7,0-191.7,0Z"/>
    <path class="st2" d="M20.7,518.6v-19.2s191.7,0,191.7,0v19.2s-191.7,0-191.7,0Z"/>
    <path class="st2" d="M20.7,645v-19.2s191.7,0,191.7,0v19.2s-191.7,0-191.7,0Z"/>
    <path class="st2" d="M20.7,684.6v-19.2s191.7,0,191.7,0v19.2s-191.7,0-191.7,0Z"/>
    <path class="st2" d="M20.7,562.9v-19.2s191.7,0,191.7,0v19.2s-191.7,0-191.7,0Z"/>
    <path class="st2" d="M20.7,602.5v-19.2s191.7,0,191.7,0v19.2s-191.7,0-191.7,0Z"/>
    <path class="st2" d="M20.7,725.9v-19.2s191.7,0,191.7,0v19.2s-191.7,0-191.7,0Z"/>
  </g>
  <path class="st0" d="M812.1,895.9h224.3c16.5,0,35.3-.4,47.9-1.5v30.3l-32.2,1.5v.8c20.7,10.4,36.4,33,36.4,63.3,0,44.9-38,79.4-94.3,79.4-61.7.4-99.7-38-99.7-83.2s13.4-47.5,28.4-56v-.8h-110.8v-33.7ZM974.3,929.7c-4.2,0-10,.4-14.2,1.5-21.5,5-39.1,23.4-39.1,48.7s30.7,55.6,71.7,55.6,68.6-18.4,68.6-54.8-15-43.3-40.3-49.5c-4.6-1.2-9.2-1.5-14.6-1.5h-32.2Z"/>
  <path class="st0" d="M1076.7,187.5c-12.7-.8-31.4-1.5-47.9-1.5h-224.3v-33.4h116.6v-.8c-20.7-11.9-34.1-33.4-34.1-63.3,0-46,38.3-78.6,94.7-78.2,66.3,0,99.3,41.8,99.3,83.2s-10.4,48.3-34.9,62.1v1.2l30.7,1.5v29.1ZM1002.3,152.6c4.2,0,8.4-.8,12.3-1.5,23.4-6.5,39.5-26.1,39.5-50.6,0-35.3-28.8-56.4-71.3-56.4s-69,19.2-69,55.2,15.7,44.5,41.4,51.4c3.8.8,8.4,1.9,13.8,1.9h33.4Z"/>
  <path class="st0" d="M1360.8,151.9c8.8-4.6,28.4-10.7,53.3-10.7,56,0,92.4,38,92.4,94.7s-39.1,98.5-99.7,98.5-37.6-5-46.8-9.6l7.7-26.1c8.1,4.6,20.7,8.8,39.1,8.8,42.6,0,65.6-31.4,65.6-70.2s-27.6-69.4-64.4-69.4-31.8,5-41.4,9.2l-5.8-25.3Z"/>
  <path class="st0" d="M1355.2,748.9c8.8-4.6,28.4-10.7,53.3-10.7,56,0,92.4,38,92.4,94.7s-39.1,98.5-99.7,98.5-37.6-5-46.8-9.6l7.7-26.1c8.1,4.6,20.7,8.8,39.1,8.8,42.6,0,65.6-31.4,65.6-70.2s-27.6-69.4-64.4-69.4-31.8,5-41.4,9.2l-5.8-25.3Z"/>
  <path class="st0" d="M201.3,930.9c-8.8,4.6-28.4,10.7-53.3,10.7-56,0-92.4-38-92.4-94.7s39.1-98.5,99.7-98.5,37.6,5,46.8,9.6l-7.7,26.1c-8.1-4.6-20.7-8.8-39.1-8.8-42.6,0-65.6,31.4-65.6,70.2s27.6,69.4,64.4,69.4,31.8-5,41.4-9.2l5.8,25.3Z"/>
  <path class="st0" d="M207,333.9c-8.8,4.6-28.4,10.7-53.3,10.7-56,0-92.4-38-92.4-94.7s39.1-98.5,99.7-98.5,37.6,5,46.8,9.6l-7.7,26.1c-8.1-4.6-20.7-8.8-39.1-8.8-42.6,0-65.6,31.4-65.6,70.2s27.6,69.4,64.4,69.4,31.8-5,41.4-9.2l5.8,25.3Z"/>
</svg>